<?xml version="1.0" standalone="no"?>
<!DOCTYPE svg PUBLIC "-//W3C//DTD SVG 20010904//EN"
 "http://www.w3.org/TR/2001/REC-SVG-20010904/DTD/svg10.dtd">
<svg version="1.0" xmlns="http://www.w3.org/2000/svg"
 viewBox="0 0 2600.000000 2600.000000"
 preserveAspectRatio="xMidYMid meet">
<metadata>
Created by potrace 1.15, written by Peter Selinger 2001-2017
</metadata>
<g transform="translate(0.000000,2600.000000) scale(0.100000,-0.100000)"
fill="#000000" stroke="none">
<path d="M11620 22403 c-286 -20 -374 -28 -550 -49 -396 -47 -944 -142 -1438
-250 -1314 -286 -2304 -653 -2962 -1098 -496 -335 -800 -740 -800 -1063 l0
-75 -74 -83 c-364 -409 -613 -854 -730 -1307 -83 -319 -102 -600 -65 -923 41
-347 177 -735 379 -1076 l72 -121 -14 -91 c-19 -138 -17 -578 5 -743 103 -786
432 -1589 970 -2374 796 -1158 1898 -2100 3220 -2751 l208 -102 -34 -36 c-19
-20 -924 -1035 -2012 -2256 -1089 -1221 -2052 -2302 -2142 -2402 l-163 -182
442 -395 c337 -301 446 -392 454 -383 9 9 4605 5167 4633 5199 3 4 60 -9 126
-28 521 -152 1260 -290 1760 -329 44 -3 92 -9 108 -11 l27 -6 0 -2834 0 -2834
595 0 595 0 0 2844 0 2843 123 12 c614 62 1268 201 1921 409 l88 28 48 -50
c25 -28 1083 -1214 2350 -2636 1267 -1422 2310 -2593 2319 -2602 15 -16 46 10
446 367 237 211 434 390 439 398 7 10 -545 636 -2213 2505 -1221 1371 -2221
2494 -2221 2496 0 3 39 26 88 52 228 122 359 195 497 277 1218 725 2272 1790
2917 2947 343 615 554 1222 634 1830 23 170 26 584 6 736 l-14 102 72 121
c396 669 497 1384 294 2082 -360 1240 -1654 2324 -3609 3022 -1517 542 -3372
814 -5220 767 -382 -10 -452 -10 -530 4 -240 40 -474 56 -770 54 -126 -1 -250
-3 -275 -5z m675 -563 c702 -61 1230 -271 1820 -725 213 -164 373 -303 559
-485 263 -257 435 -459 498 -585 117 -231 100 -408 -55 -572 -81 -86 -125
-108 -257 -128 -175 -25 -532 -91 -760 -139 l-205 -43 -515 -12 c-1243 -28
-1880 -74 -2525 -182 -241 -40 -369 -68 -695 -149 -625 -157 -933 -200 -1420
-200 -407 0 -706 42 -1020 142 -243 78 -411 158 -622 297 -345 228 -563 444
-647 645 -22 52 -26 76 -26 166 0 98 2 110 33 174 47 101 108 180 214 281 273
261 771 525 1466 776 90 32 165 59 168 59 2 0 4 -19 4 -42 0 -90 50 -189 117
-231 21 -13 172 -88 336 -167 163 -79 297 -146 297 -149 0 -3 -207 -115 -459
-249 l-459 -242 -258 117 c-289 131 -327 140 -425 108 -102 -34 -189 -153
-189 -259 0 -105 72 -209 179 -260 33 -16 61 -32 61 -35 0 -4 -75 -46 -167
-95 -231 -122 -280 -173 -291 -302 -14 -183 145 -326 325 -293 28 6 185 83
414 204 l369 196 618 -282 c339 -155 634 -288 656 -295 21 -8 60 -14 85 -14
228 0 359 271 213 440 -19 23 -31 45 -26 49 14 13 918 454 929 453 26 0 976
-469 1020 -502 29 -22 72 -44 100 -51 28 -6 73 -21 100 -32 32 -14 73 -21 115
-22 113 0 223 72 251 166 11 36 13 37 508 269 273 128 510 240 526 247 29 14
39 10 426 -177 280 -135 412 -193 450 -199 100 -16 214 31 266 110 79 119 66
257 -32 354 -42 41 -86 66 -241 140 -104 49 -191 90 -193 92 -3 2 9 18 27 36
78 81 98 208 48 310 -49 101 -131 151 -246 152 -74 0 -78 -1 -274 -94 l-199
-93 -181 87 c-99 48 -239 115 -309 148 l-128 61 83 42 c133 69 188 149 188
273 0 99 -61 194 -154 244 -32 17 -58 22 -121 22 l-80 0 -276 -136 -277 -136
-193 93 c-106 52 -197 95 -202 97 -5 1 2 20 17 41 98 145 29 351 -137 413 -44
16 -137 16 -183 -1 -22 -8 -99 -46 -173 -86 l-134 -72 -86 40 c-106 49 -150
56 -227 36 -126 -32 -206 -132 -206 -259 -1 -33 1 -66 3 -73 3 -8 -139 -89
-401 -229 -223 -119 -413 -218 -422 -220 -23 -7 -883 409 -866 418 19 10 271
80 500 138 709 180 1572 332 2108 371 85 6 166 13 180 14 68 8 580 5 685 -4z
m2849 -749 l38 -6 54 -139 c29 -77 53 -141 51 -142 -1 -1 -71 66 -154 150
l-152 152 62 -4 c34 -2 79 -7 101 -11z m-3925 -193 c94 -44 171 -84 171 -87
-1 -9 -746 -371 -761 -370 -8 0 -85 35 -172 77 l-158 77 363 192 c200 106 368
193 375 193 6 0 88 -37 182 -82z m5417 -38 c54 -11 100 -22 101 -24 3 -3 -411
-26 -463 -26 -30 0 -34 4 -58 65 -14 36 -26 67 -26 69 0 4 310 -54 446 -84z
m-4298 -502 c161 -78 289 -145 285 -149 -7 -7 -746 -357 -764 -362 -12 -4
-588 278 -581 284 12 12 746 369 757 369 5 0 142 -64 303 -142z m-2478 -168
l135 -68 -405 -199 c-349 -172 -410 -205 -443 -242 l-39 -43 -159 73 c-87 40
-159 75 -159 78 0 3 202 113 448 243 317 168 453 236 467 231 11 -3 81 -36
155 -73z m9158 -139 c97 -50 233 -122 302 -161 167 -96 492 -312 483 -320 -7
-6 -389 -45 -654 -66 l-75 -7 -222 299 c-122 165 -222 304 -222 309 -1 9 116
29 188 34 13 0 103 -39 200 -88z m-1209 -343 c169 -227 220 -303 210 -309 -26
-16 -137 -9 -241 15 -264 63 -601 102 -937 109 l-103 2 -78 200 c-43 110 -75
203 -71 206 3 3 123 14 266 23 143 10 348 26 455 36 107 10 213 18 235 19 l40
0 224 -301z m-569 -732 c602 -71 1054 -244 1515 -581 399 -290 972 -882 1153
-1190 22 -38 53 -106 67 -150 24 -70 27 -92 23 -175 -3 -85 -7 -102 -37 -158
-98 -182 -354 -318 -668 -352 -87 -10 -210 -9 -628 4 -1262 40 -1652 44 -2105
26 -559 -23 -933 -67 -1416 -164 -885 -179 -1663 -148 -2274 90 -278 109 -548
282 -801 514 -174 159 -307 359 -330 498 -60 348 391 706 1292 1025 156 56
513 167 535 167 8 0 10 -13 7 -39 -3 -22 2 -63 11 -95 27 -91 65 -121 383
-296 155 -85 279 -158 275 -162 -4 -3 -204 -97 -445 -207 l-438 -202 -229 121
c-265 139 -305 152 -396 125 -80 -23 -155 -96 -178 -174 -20 -67 -20 -84 -1
-148 19 -64 80 -133 153 -172 l53 -28 -167 -77 c-92 -43 -183 -89 -201 -103
-114 -87 -125 -279 -20 -380 64 -62 101 -77 182 -78 69 0 73 2 425 164 195 91
359 164 365 164 5 0 272 -138 593 -306 634 -332 635 -332 734 -303 168 49 240
242 143 386 -18 27 -30 52 -26 54 15 9 884 376 890 376 20 0 899 -495 932
-525 22 -19 40 -35 42 -35 2 0 117 -42 182 -67 52 -19 147 -13 200 15 50 25
90 66 109 113 15 36 17 37 503 234 268 109 497 200 509 202 13 3 136 -59 350
-178 413 -228 414 -229 489 -229 147 1 255 110 255 258 0 128 -49 184 -265
302 -82 45 -161 89 -174 97 l-23 15 35 36 c57 60 72 97 72 182 0 88 -21 136
-84 193 -49 44 -135 72 -197 63 -23 -3 -126 -39 -227 -79 l-184 -74 -268 148
c-147 81 -272 152 -277 157 -5 5 21 22 66 42 131 57 194 150 184 273 -6 73
-24 113 -73 162 -57 57 -90 69 -180 70 -80 0 -81 0 -330 -107 -138 -60 -257
-108 -264 -108 -10 0 -346 182 -358 194 -2 2 13 33 32 70 23 44 35 81 35 107
0 154 -110 270 -257 270 -63 1 -91 -9 -273 -94 l-96 -44 -82 42 c-101 52 -154
62 -225 41 -74 -21 -127 -63 -162 -127 -24 -44 -29 -66 -29 -120 l0 -66 -400
-184 c-220 -101 -404 -183 -409 -181 -15 5 -771 423 -780 431 -9 9 273 72 553
125 588 110 1167 184 1735 220 154 9 766 -3 895 -18z m3437 -288 c101 -163
204 -407 228 -540 6 -33 5 -38 -13 -38 -10 0 -169 -16 -353 -35 -184 -19 -344
-35 -357 -35 -33 0 -490 612 -464 622 9 3 177 25 372 48 195 23 380 45 410 49
124 19 119 21 177 -71z m-4406 -544 c85 -47 158 -89 162 -93 5 -5 -90 -50
-210 -101 -120 -51 -284 -121 -364 -155 l-147 -62 -143 78 c-79 43 -145 82
-146 86 -2 5 153 81 344 170 192 88 349 161 349 162 1 1 71 -38 155 -85z
m1031 -569 c145 -80 264 -148 265 -153 2 -6 -677 -286 -726 -299 -12 -3 -112
46 -280 139 -143 78 -261 146 -261 149 0 7 701 307 722 308 9 1 135 -64 280
-144z m-2345 -21 c76 -43 139 -78 141 -79 1 -1 -171 -75 -383 -165 -308 -130
-395 -171 -430 -202 l-45 -40 -138 72 c-75 39 -141 75 -145 79 -5 5 800 389
860 410 2 1 65 -33 140 -75z m-8312 -214 c176 -21 424 -51 550 -66 127 -15
231 -28 233 -29 3 -2 -391 -571 -407 -588 -4 -4 -83 0 -176 9 l-169 17 -29 34
c-84 95 -202 268 -270 393 -46 85 -117 249 -117 270 0 7 12 9 33 5 17 -3 176
-23 352 -45z m3680 -349 c141 -10 249 -21 249 -27 -3 -13 -186 -578 -189 -582
-13 -15 -2325 154 -2341 171 -3 3 66 107 152 231 113 162 162 225 173 221 36
-11 376 -55 507 -66 86 -7 243 -9 400 -6 276 5 387 18 519 63 79 26 74 26 530
-5z m999 -646 c3 -8 1 -15 -4 -15 -6 0 -10 7 -10 15 0 8 2 15 4 15 2 0 6 -7
10 -15z m-2712 -735 c271 -22 715 -55 985 -73 271 -19 495 -36 498 -39 3 -3
-29 -109 -70 -236 -41 -128 -75 -248 -75 -268 0 -35 -1 -35 -32 -29 -204 44
-839 252 -1144 374 -313 125 -711 309 -672 311 9 0 239 -18 510 -40z m2877
-175 l344 -16 55 -47 c183 -158 348 -271 558 -379 389 -201 799 -336 1271
-418 72 -12 137 -27 145 -31 34 -23 -789 -19 -1192 5 -570 34 -1101 92 -1605
176 -291 49 -265 41 -255 73 5 15 54 168 110 340 l101 312 62 0 c34 0 217 -7
406 -15z m4871 -656 c-166 -40 -881 -141 -1235 -173 -93 -9 -188 -18 -210 -21
-34 -4 -36 -3 -15 6 41 17 313 69 519 99 241 35 832 97 941 98 l35 0 -35 -9z"/>
</g>
</svg>
